<?xml version="1.0" encoding="UTF-8"?>
<svg width="100px" height="100px" fill="none" version="1.1" viewBox="0 0 24 24" xmlns="http://www.w3.org/2000/svg">
 <defs>
  <filter id="filter18301" x="-.00013931" y="-.00016361" width="1.0003" height="1.0003" color-interpolation-filters="sRGB">
   <feGaussianBlur stdDeviation="0.001145971"/>
  </filter>
 </defs>
 <path transform="matrix(.52372 -.70768 1.1356 .92998 -13.799 9.2787)" d="m23.379 15.843-2.4622 13.291-17.28 2.2244 2.8118-16.399c7.0574 3.2158 12.13-2.9293 16.931 0.88301z" display="none" fill="#808080" fill-opacity=".2" fill-rule="evenodd" filter="url(#filter18301)" stop-color="#000000" stroke-opacity="0" style="paint-order:stroke fill markers"/>
 <g transform="matrix(.84174 0 0 .90749 1.8227 1.7233)" fill-rule="evenodd" stroke-width="1.1442">
  <path d="m9.5761 5.0549h5.136l2.6488 1.2744h-10.454z" fill="#6c5353" stop-color="#000000" stroke-opacity="0" style="paint-order:stroke fill markers"/>
  <g stroke-opacity="0">
   <rect x="6.9069" y="6.3293" width="10.454" height="11.661" fill="#917c6f" stop-color="#000000" style="-inkscape-stroke:none;font-variation-settings:normal;paint-order:stroke fill markers"/>
   <rect x="8.3196" y="7.4604" width="7.4874" height="9.6206" fill="#666" stop-color="#000000" style="-inkscape-stroke:none;font-variation-settings:normal;paint-order:stroke fill markers"/>
   <rect x="10.368" y="14.247" width="3.0724" height="2.8343" fill="#4d4d4d" stop-color="#000000" style="-inkscape-stroke:none;font-variation-settings:normal;paint-order:stroke fill markers"/>
   <rect x="5.6354" y="17.99" width="13.209" height=".63721" fill="#000" stop-color="#000000" style="-inkscape-stroke:none;font-variation-settings:normal;paint-order:stroke fill markers"/>
  </g>
  <ellipse cx="11.911" cy="15.631" rx=".56459" ry=".34825" fill="#333" stroke-width=".2746"/>
  <path d="m6.8289 8.3734-1.9445 3.3528a0.8233 0.71089 0 0 0-0.10349 0.3447 0.8233 0.71089 0 0 0 0.82335 0.71072 0.8233 0.71089 0 0 0 0.82335-0.71072 0.8233 0.71089 0 0 0-0.082334-0.3094h0.37051a0.8233 0.71089 0 0 0-0.088538 0.32018 0.8233 0.71089 0 0 0 0.82307 0.71072 0.8233 0.71089 0 0 0 0.82335-0.71072 0.8233 0.71089 0 0 0-0.088255-0.32018h0.3237a0.8233 0.71089 0 0 0-0.07331 0.29322 0.8233 0.71089 0 0 0 0.82335 0.71072 0.8233 0.71089 0 0 0 0.82335-0.71072 0.8233 0.71089 0 0 0-0.07332-0.29322h0.35246a0.8233 0.71089 0 0 0-0.07952 0.304 0.8233 0.71089 0 0 0 0.82335 0.71073 0.8233 0.71089 0 0 0 0.82307-0.71073 0.8233 0.71089 0 0 0-0.07924-0.304h0.36459a0.8233 0.71089 0 0 0-0.08573 0.31479 0.8233 0.71089 0 0 0 0.82335 0.71073 0.8233 0.71089 0 0 0 0.82335-0.71073 0.8233 0.71089 0 0 0-0.08543-0.31479h0.37699a0.8233 0.71089 0 0 0-0.09193 0.32557 0.8233 0.71089 0 0 0 0.82307 0.71073 0.8233 0.71089 0 0 0 0.82335-0.71073 0.8233 0.71089 0 0 0-0.09136-0.32557h0.3457a0.8233 0.71089 0 0 0-0.07952 0.304 0.8233 0.71089 0 0 0 0.82307 0.71073 0.8233 0.71089 0 0 0 0.82335-0.71073 0.8233 0.71089 0 0 0-0.07923-0.304h0.36458a0.8233 0.71089 0 0 0-0.08573 0.31479 0.8233 0.71089 0 0 0 0.82335 0.71073 0.8233 0.71089 0 0 0 0.82335-0.71073 0.8233 0.71089 0 0 0-0.08544-0.31479h0.0034l-1.7098-3.3506z" fill="#ff8080" stop-color="#000000" stroke-opacity="0" style="paint-order:stroke fill markers"/>
  <path d="m13.9 10.431c-0.20327 0-0.36804 0.1638-0.36804 0.36588 5e-3 0.24945 0.1024 1.2209 0.35468 1.2196 0.27247 8.83e-4 0.37238-0.98267 0.3814-1.2196 0-0.20208-0.16477-0.36588-0.36804-0.36588zm1.7439 0.0029c-0.20327 0-0.36804 0.16385-0.36804 0.36593 5e-3 0.24945 0.1813 1.2208 0.43357 1.2195 0.27247 8.84e-4 0.29348-0.98262 0.30251-1.2195-1e-6 -0.20208-0.16477-0.36593-0.36804-0.36593zm-5.4558 3.53e-4c-0.20327 0-0.36804 0.1638-0.36804 0.36588 0.00494 0.24945 0.1024 1.2209 0.35467 1.2196 0.27247 8.82e-4 0.37239-0.98267 0.38141-1.2196 0-0.20208-0.16477-0.36588-0.36804-0.36588zm-3.5626-0.01147c-0.20327 0-0.36804 0.16385-0.36804 0.36593 0.00494 0.24945 0.01314 1.2338 0.26541 1.2324 0.27247 8.83e-4 0.46165-0.99556 0.47067-1.2324-7e-7 -0.20208-0.16477-0.36593-0.36804-0.36593zm5.3855 0.01435c-0.20327 0-0.36804 0.16385-0.36804 0.36593 5e-3 0.24945 0.1024 1.2208 0.35467 1.2195 0.27247 8.84e-4 0.37239-0.98262 0.3814-1.2195 0-0.20208-0.16477-0.36593-0.36803-0.36593zm5.4577 0.0026c-0.20327 0-0.36804 0.16385-0.36804 0.36593 5e-3 0.24945 0.19182 1.2208 0.44409 1.2195 0.27247 8.84e-4 0.28296-0.98262 0.29199-1.2195 0-0.20208-0.16477-0.36593-0.36804-0.36593zm-8.6598 0.35838c-0.00903 0.23688-0.19076 1.2268-0.46323 1.226-0.25227 0.0013-0.26789-0.97655-0.27286-1.226 0-0.20208 0.16478-0.3659 0.36804-0.3659 0.20327 0 0.36805 0.16382 0.36805 0.3659z" fill="#d35f5f" stroke-width=".2746"/>
 </g>
</svg>
