<?xml version="1.0" encoding="UTF-8"?>
<svg class="bi bi-credit-card-2-back-fill" width="20px" height="20px" version="1.1" viewBox="0 0 16 16" xmlns="http://www.w3.org/2000/svg">
 <rect x="-.10879" y="-.12678" width="16.209" height="16.227" fill="#ffc800" fill-rule="evenodd" stop-color="#000000" stroke-opacity="0" style="-inkscape-stroke:none;font-variation-settings:normal;paint-order:stroke fill markers"/>
 <path d="m2.9906 5.5289a1.2789 1.2612 0 0 1 1.2789-1.2612h7.6732a1.2789 1.2612 0 0 1 1.2789 1.2612v3.153h-10.231zm7.3535 0.63059a0.31972 0.3153 0 0 0-0.31972 0.3153v0.63059a0.31972 0.3153 0 0 0 0.31972 0.3153h1.2789a0.31972 0.3153 0 0 0 0.31972-0.3153v-0.63059a0.31972 0.3153 0 0 0-0.31972-0.3153zm-7.3535 3.7836v0.63059a1.2789 1.2612 0 0 0 1.2789 1.2612h7.6732a1.2789 1.2612 0 0 0 1.2789-1.2612v-0.63059z" fill="#fff" stroke-width=".99999"/>
</svg>
